PathFileType	4	(X/Y/Z)	./resultDataOpenSim/trcMotMarkerGrf/sub10/qtm-03-01.trc
DataRate	CameraRate	NumFrames	NumMarkers	Units	OrigDataRate	OrigDataStartFrame	OrigNumFrames
250.000000	250.000000	11	24	m	250.000000	1	482
Frame#	Time	L.Toe.Tip			R.Toe.Tip			L.Ankle.Lat			R.Ankle.Lat			L.Ankle.Med			R.Ankle.Med			L.Heel			R.Heel			L.Knee.Lat			R.Knee.Lat			L.Knee.Med			R.Knee.Med			L.Thigh.Upper			R.Thigh.Upper			L.ASIS			R.ASIS			V.Sacral			L.Acromium			R.Acromium			C7			L.Elbow			R.Elbow			L.Wrist.Lat			R.Wrist.Lat
		X1	Y1	Z1	X2	Y2	Z2	X3	Y3	Z3	X4	Y4	Z4	X5	Y5	Z5	X6	Y6	Z6	X7	Y7	Z7	X8	Y8	Z8	X9	Y9	Z9	X10	Y10	Z10	X11	Y11	Z11	X12	Y12	Z12	X13	Y13	Z13	X14	Y14	Z14	X15	Y15	Z15	X16	Y16	Z16	X17	Y17	Z17	X18	Y18	Z18	X19	Y19	Z19	X20	Y20	Z20	X21	Y21	Z21	X22	Y22	Z22	X23	Y23	Z23	X24	Y24	Z24

1	0	-1.5309156	0.038221896	-0.10484362	-0.94730668	0.094133311	0.024676556	-1.6635847	0.070878433	-0.12810189	-1.083734	0.066870323	0.032272941	-1.6512024	0.096798703	-0.047798777	-1.0631638	0.1063037	-0.043639328	NaN	NaN	NaN	-1.1137614	0.029588487	-0.030554563	-1.5194947	0.43143629	-0.17947682	-1.1963882	0.45004225	0.078720101	-1.5161403	0.41212364	-0.056984325	-1.170903	0.4645211	-0.047741206	-1.4122078	0.80956681	-0.2507299	-1.34882	0.83777885	0.12914124	-1.3333539	0.9125012	-0.19668688	-1.2922798	0.92708907	0.046888592	-1.5099785	0.93934072	-0.041629482	-1.3234033	1.3883563	-0.22977005	-1.3534428	1.3859085	0.09318249	-1.4187063	1.4231205	-0.080495808	-1.3598408	1.0407632	-0.27281161	-1.5443881	1.0926037	0.13015908	-1.1539889	0.90154084	-0.26302656	-1.467788	0.87614926	0.21722059
2	0.004	-1.530835	0.038223191	-0.10483778	-0.93400685	0.098051869	0.023507393	-1.6633118	0.071699035	-0.12799278	-1.0702179	0.067633257	0.03301185	-1.6513144	0.097609786	-0.047661957	-1.0507963	0.1075373	-0.043193733	NaN	NaN	NaN	-1.0993046	0.029935801	-0.028977158	-1.5164446	0.43128084	-0.1794725	-1.1915344	0.44812464	0.079056891	-1.5129082	0.41176378	-0.05697945	-1.1668975	0.46226241	-0.047853192	-1.4077774	0.80914496	-0.25054674	-1.3435591	0.83609801	0.12912493	-1.3287035	0.91177432	-0.19659609	-1.2868149	0.92609305	0.046816849	-1.5048956	0.93801882	-0.041107776	-1.3186514	1.387241	-0.22995544	-1.3484	1.384905	0.092921171	-1.4138436	1.4220568	-0.080732184	-1.353854	1.0393765	-0.27252241	-1.5402392	1.0925247	0.13031725	-1.1464397	0.90240022	-0.26179574	-1.4650618	0.87583906	0.21741808
3	0.008	-1.5307558	0.038221065	-0.10484039	-0.9210618	0.10180105	0.022487429	-1.6630185	0.072545198	-0.12787304	-1.0569479	0.06844441	0.033731722	-1.6512927	0.098422732	-0.047506343	-1.0387873	0.10875093	-0.042764555	NaN	NaN	NaN	-1.0853287	0.03029868	-0.027446615	-1.5133365	0.43110897	-0.17949134	-1.1866986	0.44629024	0.079390305	-1.5095586	0.41143302	-0.056957017	-1.1628926	0.46003895	-0.047933494	-1.4033999	0.80870817	-0.25044659	-1.3381545	0.83442604	0.1291469	-1.3240344	0.91103645	-0.19653884	-1.2813835	0.92506131	0.046703065	-1.4997571	0.93670718	-0.040532058	-1.3138856	1.3861301	-0.23014292	-1.3433686	1.3839357	0.092702585	-1.4089621	1.4209934	-0.080949256	-1.3478275	1.0380237	-0.27211946	-1.5362261	1.0924834	0.13037834	-1.1389261	0.90325423	-0.26058762	-1.462371	0.87551246	0.21760483
4	0.012	-1.5306772	0.038215141	-0.10485397	-0.90865757	0.10534762	0.021585018	-1.6626298	0.073451266	-0.12777477	-1.0440975	0.06932892	0.034419832	-1.6510211	0.099254111	-0.047337579	-1.0273	0.10994777	-0.042360754	NaN	NaN	NaN	-1.072046	0.03069165	-0.026148922	-1.510128	0.43091223	-0.17952886	-1.1818406	0.44459321	0.079722027	-1.5060408	0.41112087	-0.056922249	-1.1588744	0.45787708	-0.047970472	-1.3991014	0.80823826	-0.2504437	-1.3326065	0.83275382	0.12920928	-1.3193212	0.9102853	-0.19652807	-1.2759735	0.92397406	0.046532558	-1.494532	0.93542119	-0.039880949	-1.3090949	1.3850141	-0.23032602	-1.338371	1.3830007	0.092533065	-1.4040571	1.4199265	-0.081163633	-1.3417511	1.0366968	-0.27159127	-1.5324109	1.0925292	0.1302912	-1.1314565	0.90410392	-0.2594106	-1.4597382	0.87516232	0.21776327
5	0.016	-1.5305973	0.03820697	-0.10487625	-0.89682786	0.10874407	0.020666506	-1.662001	0.074471453	-0.12777336	-1.0317775	0.07026975	0.03506052	-1.65047	0.10013182	-0.047188783	-1.016332	0.11113579	-0.041975037	NaN	NaN	NaN	-1.0594604	0.031141555	-0.025116221	-1.5068121	0.4307012	-0.17957302	-1.1768967	0.44306461	0.080052751	-1.5023897	0.41079132	-0.056888961	-1.1548218	0.45580593	-0.047968347	-1.3948749	0.80774687	-0.25050282	-1.3269538	0.83108648	0.12929867	-1.3145503	0.90952739	-0.19656091	-1.2705304	0.92284131	0.04632138	-1.4892237	0.93417202	-0.03916411	-1.304285	1.3838777	-0.23050288	-1.3334198	1.382078	0.092388166	-1.3991399	1.4188644	-0.081388254	-1.3356611	1.035361	-0.27102319	-1.5287443	1.0926543	0.13006516	-1.1240387	0.90495447	-0.25826408	-1.4572178	0.87479154	0.21787614
6	0.02	-1.5305142	0.038198811	-0.10490408	-0.88548698	0.11202627	0.019656503	-1.6610205	0.075648328	-0.12793054	-1.0200361	0.07121546	0.035630939	-1.6497221	0.10107155	-0.047104043	-1.0058311	0.11230584	-0.041596488	NaN	NaN	NaN	-1.0475089	0.031695791	-0.024064399	-1.5034021	0.43048978	-0.17962557	-1.1718222	0.44172116	0.08037481	-1.4986627	0.41043293	-0.056864963	-1.1507158	0.4538603	-0.04793356	-1.3906694	0.8072754	-0.25059617	-1.3211732	0.82945716	0.12941183	-1.3097227	0.90877077	-0.19663888	-1.2649728	0.92169721	0.046105311	-1.4838363	0.93296089	-0.038395697	-1.2994613	1.3827187	-0.23068127	-1.3284633	1.3811685	0.092243188	-1.3942153	1.4178256	-0.081613194	-1.3295953	1.0339847	-0.27050119	-1.5250676	1.0927802	0.12976473	-1.116673	0.90580434	-0.25714326	-1.4548864	0.87441838	0.21793894
7	0.024	-1.5304254	0.038193643	-0.10493579	-0.87452047	0.11514763	0.01858789	-1.6598043	0.076948459	-0.12821629	-1.0088915	0.072104114	0.036107402	-1.648892	0.10206434	-0.047109166	-0.99578109	0.11342825	-0.041232317	NaN	NaN	NaN	-1.0361575	0.032351419	-0.022848219	-1.4999184	0.43027639	-0.17970182	-1.1665861	0.44057466	0.080680161	-1.4948901	0.41007296	-0.056860616	-1.1465387	0.45207729	-0.047869443	-1.3864217	0.80684586	-0.25070515	-1.3152305	0.82790628	0.12955289	-1.3048439	0.90802179	-0.19677209	-1.2592511	0.92057364	0.045916115	-1.4783725	0.93179069	-0.037589098	-1.2946206	1.3815618	-0.23086275	-1.3234038	1.380303	0.092093063	-1.3892788	1.4168221	-0.081828754	-1.323586	1.0325603	-0.27011371	-1.5212125	1.0928513	0.129485	-1.1093521	0.90664584	-0.25604148	-1.4526965	0.87407165	0.21796996
8	0.028	-1.5303307	0.038193957	-0.10497209	-0.8639461	0.11796019	0.017537964	-1.6586567	0.078281202	-0.12852529	-0.99835513	0.072878987	0.036470923	-1.6480406	0.10309482	-0.047195707	-0.98619623	0.1144613	-0.040905314	NaN	NaN	NaN	-1.0254262	0.033009727	-0.021710716	-1.496379	0.43005441	-0.17982751	-1.161143	0.43963426	0.080970174	-1.4910591	0.40973653	-0.056895524	-1.1422521	0.45049227	-0.047774577	-1.3821003	0.80644385	-0.25079987	-1.3090781	0.82646798	0.12971869	-1.2999058	0.907284	-0.19696527	-1.2533764	0.91947364	0.045749405	-1.4728394	0.93066965	-0.036760214	-1.2897561	1.3804403	-0.23103819	-1.3181782	1.3794966	0.091949847	-1.3843224	1.4158558	-0.082031695	-1.3176794	1.0311167	-0.27002281	-1.5170878	1.09287	0.12929811	-1.102072	0.90747622	-0.25495086	-1.4503955	0.87376052	0.21800407
9	0.032	-1.5302315	0.038200322	-0.10501541	-0.85395172	0.12028334	0.016543298	-1.657759	0.07959533	-0.12879296	-0.98843699	0.07348833	0.036710756	-1.6471659	0.10415831	-0.047342537	-0.97709294	0.11536167	-0.040637943	NaN	NaN	NaN	-1.0153653	0.033558922	-0.020906123	-1.492781	0.42982129	-0.18001795	-1.1554426	0.4388968	0.081248335	-1.4871101	0.40941705	-0.056987989	-1.1377998	0.449134	-0.047649675	-1.3777054	0.80604888	-0.25085508	-1.3026459	0.82517022	0.12988748	-1.2948875	0.90655926	-0.19721197	-1.2473847	0.91837361	0.045560922	-1.4672285	0.92960637	-0.035904081	-1.2848599	1.3793638	-0.23119978	-1.3128104	1.3787328	0.091826004	-1.3793413	1.4149265	-0.082217368	-1.3119067	1.0297088	-0.27034925	-1.5126844	1.092846	0.12921216	-1.0948364	0.90829675	-0.25386891	-1.4477278	0.87345899	0.21806205
10	0.036	-1.5301283	0.038212376	-0.10506888	-0.84470457	0.12202875	0.015601851	-1.657058	0.080918208	-0.1290447	-0.97915924	0.073882561	0.03682456	-1.6462113	0.1052663	-0.047546993	-0.96848061	0.11609108	-0.040445297	NaN	NaN	NaN	-1.0060215	0.033946847	-0.020443919	-1.4890929	0.42957262	-0.18025352	-1.1494467	0.43834992	0.08151108	-1.4829923	0.40908947	-0.057136192	-1.1331381	0.44801534	-0.047509907	-1.3732401	0.80565704	-0.2508717	-1.2959163	0.82402878	0.1300241	-1.2897671	0.90585045	-0.19750156	-1.2413117	0.91725219	0.045301885	-1.4614766	0.92860844	-0.034954501	-1.2799215	1.3783166	-0.23134901	-1.3073737	1.3779893	0.091724331	-1.3743331	1.4140374	-0.082370541	-1.3062175	1.0283791	-0.27091955	-1.5080589	1.0927855	0.12918778	-1.0876562	0.90910855	-0.25280788	-1.4446763	0.8731366	0.21813231
11	0.04	-1.5300193	0.038229646	-0.10513515	-0.83623219	0.12323555	0.014714093	-1.656442	0.082309013	-0.1293313	-0.9705806	0.074017969	0.036810206	-1.6450924	0.10644399	-0.04782593	-0.96036494	0.11661778	-0.040333081	NaN	NaN	NaN	-0.99742374	0.034158191	-0.020211532	-1.4852675	0.42930441	-0.18049231	-1.1431472	0.43797917	0.081744142	-1.4787405	0.40873051	-0.057318524	-1.1282583	0.44712862	-0.047382421	-1.3686971	0.8052819	-0.25087332	-1.2889479	0.82303762	0.13010451	-1.2845342	0.9051605	-0.19782495	-1.2351958	0.91611658	0.044955547	-1.4554587	0.92768054	-0.033779038	-1.274937	1.3772914	-0.2314933	-1.3019216	1.3772549	0.091643392	-1.3692904	1.4131936	-0.082463412	-1.3004983	1.0271399	-0.27132319	-1.503309	1.0927167	0.1291847	-1.0805515	0.90991287	-0.25178998	-1.4414174	0.87279029	0.21818831
